[img]http://www.leetleech.org/images/47588998470190554240.jpg[/img]
[code]
Just Go With It 2011 R5 LINE XViD - IMAGiNE

Ripper ...........:IMAGiNE                                        IMDB Rating.......:6.1/10                             
Video Codec.......:XVID                                           Release Date......:14/04/11
Audio Codec.......:MP3                                            Theatre Date......:02/11/11
Audio Bitrate.....:128                                            Runtime...........:1h 51mn
Subtitles.........:NIL                                            Language..........:ENGLISH
Resolution........:720 x 304                                      IMDb URL..........:http://www.imdb.com/title/tt1564367/


DETAILS:

Video
ID                               : 0
Format                           : MPEG-4 Visual
Format profile                   : Advanced Simple@L5
Format settings, BVOP            : Yes
Format settings, QPel            : No
Format settings, GMC             : No warppoints
Format settings, Matrix          : Default (MPEG)
Muxing mode                      : Packed bitstream
Codec ID                         : XVID
Codec ID/Hint                    : XviD
Duration                         : 1h 51mn
Bit rate                         : 1 617 Kbps
Width                            : 720 pixels
Height                           : 304 pixels
Display aspect ratio             : 2.35:1
Frame rate                       : 25.000 fps
Color space                      : YUV
Chroma subsampling               : 4:2:0
Bit depth                        : 8 bits
Scan type                        : Progressive
Compression mode                 : Lossy
Bits/(Pixel*Frame)               : 0.296
Stream size                      : 1.26 GiB (92%)
Writing library                  : XviD 61

Audio
ID                               : 1
Format                           : MPEG Audio
Format version                   : Version 1
Format profile                   : Layer 3
Mode                             : Joint stereo
Mode extension                   : MS Stereo
Codec ID                         : 55
Codec ID/Hint                    : MP3
Duration                         : 1h 51mn
Bit rate mode                    : Constant
Bit rate                         : 128 Kbps
Channel(s)                       : 2 channels
Sampling rate                    : 44.1 KHz
Compression mode                 : Lossy
Stream size                      : 102 MiB (7%)
Alignment                        : Split accross interleaves
Interleave, duration             : 40 ms (1.00 video frame)
Writing library                  : LAME3.98r
Encoding settings                : -m j -V 4 -q 2 -lowpass 17 -b 128

SOURCES:

VIDEO: DVD9 ELEKTRI4KA...Thanks 
AUDIO: thanks matey 

NOTES:
IMAGiNE bringing you another release..........Just Go With It
Here we are with a nice encode of Just Go With It for you all to enjoy.
we also made a script up for video. Now sharpen resize leveled out the blue 
and green toned down the yellow and red and made slightly darker to make the black true  
the audio we just sync our very nice Line to our encode...
Fri this full line audio again who knows if it works on ps3 



Anyway enjoy folks ....
[/code]
Screens:
[img]http://www.grinshare.com/img/O43RUS.jpg[/img]
[img]http://www.grinshare.com/img/PIMJV0.jpg[/img]
[img]http://www.grinshare.com/img/IU2WIK.jpg[/img]
[img]http://www.grinshare.com/img/K00UKU.jpg[/img]